<?xml version="1.0" encoding="UTF-8"?>
<!DOCTYPE svg PUBLIC "-//W3C//DTD SVG 1.1//EN" "http://www.w3.org/Graphics/SVG/1.1/DTD/svg11.dtd">
<!-- Creator: CorelDRAW -->
<svg xmlns="http://www.w3.org/2000/svg" xml:space="preserve" width="200px" height="108px" style="shape-rendering:geometricPrecision; text-rendering:geometricPrecision; image-rendering:optimizeQuality; fill-rule:evenodd; clip-rule:evenodd" viewBox="0 0 212.138 114.904" xmlns:xlink="http://www.w3.org/1999/xlink">
 <defs>
  <style type="text/css">
   <![CDATA[
    .fil0 {fill:#1F1A17}
    .fil1 {fill:white}
   ]]>
  </style>
 </defs>
 <g id="Layer_x0020_1">
  <metadata id="CorelCorpID_0Corel-Layer"/>
  <path class="fil0" d="M106.069 0c-66.9006,0 -106.069,54.4406 -106.069,114.904l212.138 0c0,-60.463 -39.1683,-114.904 -106.069,-114.904z"/>
  <path class="fil1" d="M29.9115 88.521l32.5794 0 2.83504 -13.4872 2.2763 13.4872 21.4982 0 2.6545 -10.2458 1.7454 10.2458 44.5777 0 2.23917 -6.99251 2.49688 6.99251 39.4505 0c-0.922203,-6.49073 -13.364,-55.8327 -20.9069,-33.5937l-0.238604 -0.0591506c-3.16556,-18.6483 -7.9098,-28.618 -12.7676,-1.76851l-0.302123 -0.0491405c-5.2129,-32.2564 -4.05682,-23.1819 -8.23358,3.02542 -3.15027,-41.308 -26.6751,-50.9807 -33.7746,-4.30343l-0.24188 -0.168898c-0.872699,-20.4224 0.146511,-48.1573 -6.73643,-12.7192l-0.275369 0c-0.905095,-5.60238 -1.31569,-11.3076 -2.71547,-16.8071 -0.165986,-0.652295 -4.22936,29.2004 -5.17213,39.1435 -1.75741,-29.2748 -3.03979,-59.6689 -10.5132,-14.1448 -4.47597,-28.0913 -3.3017,-24.4969 -7.29846,3.23235 -6.20408,-45.5285 -6.10088,-0.680505 -7.47281,20.8186 -3.64459,-37.2086 -3.00722,-50.9642 -11.1159,-9.90618 -3.09057,-36.7624 -6.01061,-7.83718 -9.34306,12.4029 -0.232962,-2.79518 0.383296,-21.05 -2.71783,-18.6104 -9.36199,7.38163 -7.21,16.8774 -8.46363,28.161l-0.240424 -0.0487765c-3.66898,-21.8198 -2.18293,-3.98384 -3.82313,5.39563z"/>
 </g>
</svg>